<svg aria-hidden="true" style="position: absolute; width: 0; height: 0; overflow: hidden;" version="1.1" xmlns="http://www.w3.org/2000/svg" xmlns:xlink="http://www.w3.org/1999/xlink">
<defs>
<symbol id="1" viewBox="0 0 32 32">
<path d="M3.102 31.93c0.019-11.781 4.366-23.077 12.245-31.824l15.339 15.339c-3.546 4.803-5.427 10.499-5.445 16.485h-22.139z"></path>
<path d="M15.35 0.222l15.23 15.23c-3.515 4.784-5.386 10.446-5.419 16.397h-21.979c0.040-11.702 4.355-22.923 12.168-31.627zM15.344-0.010c-7.658 8.472-12.322 19.701-12.322 32.019h22.299c0-6.21 2.034-11.942 5.47-16.573l-15.448-15.446z"></path>
</symbol>
<symbol id="2" viewBox="0 0 32 32">
<path d="M-0.080 16.674c8.694-8.39 20.122-13.133 32.195-13.362v20.048c-6.462 0.757-12.488 3.781-16.984 8.525l-15.211-15.211z"></path>
<path d="M32.035 3.394v19.896c-6.427 0.77-12.419 3.776-16.906 8.482l-15.096-15.098c8.653-8.322 20.005-13.032 32.002-13.28zM32.195 3.23c-12.582 0.218-23.978 5.298-32.39 13.442l15.328 15.328c4.389-4.658 10.363-7.802 17.062-8.568v-20.202z"></path>
</symbol>
<symbol id="3" viewBox="0 0 32 32">
<path d="M19.054 31.888c-5.166-4.816-11.89-7.475-18.954-7.494v-19.717c12.054 0.608 23.33 5.718 31.765 14.398l-12.811 12.813z"></path>
<path d="M0.181 4.762c11.976 0.626 23.178 5.702 31.573 14.314l-12.702 12.702c-5.154-4.778-11.843-7.424-18.87-7.464v-19.552zM0.021 4.594v19.88c7.362 0 14.056 2.859 19.035 7.526l12.923-12.923c-8.174-8.438-19.432-13.874-31.958-14.483v0z"></path>
</symbol>
<symbol id="4" viewBox="0 0 32 32">
<path d="M10.589 31.92c-0.019-6.55-2.349-12.904-6.568-17.907l12.754-12.755c7.226 8.563 11.213 19.445 11.232 30.662h-17.418z"></path>
<path d="M16.771 1.376c3.512 4.176 6.256 8.872 8.158 13.96 1.971 5.274 2.979 10.826 2.998 16.504h-17.259c-0.037-6.517-2.355-12.834-6.539-17.822l12.642-12.642zM16.781 1.141l-12.869 12.867c4.115 4.853 6.597 11.131 6.597 17.992h17.578c0.002-11.765-4.254-22.534-11.306-30.859v0z"></path>
</symbol>
<symbol id="arr" viewBox="0 0 7 32">
<path d="M3.556 32.049v0c-2.239 0-3.964-2.324-3.662-4.935l3.066-26.551c0.094-0.815 1.095-0.815 1.19 0l3.068 26.549c0.302 2.611-1.422 4.936-3.662 4.936z"></path>
</symbol>
<symbol id="range" viewBox="0 0 56 32">
<path d="M8.17 27.901c0-10.863 8.806-19.668 19.668-19.668s19.668 8.806 19.668 19.668h8.141c0-15.358-12.45-27.809-27.809-27.809s-27.809 12.45-27.809 27.809h8.141z"></path>
<path d="M8.165 27.901c0 2.246-1.821 4.067-4.067 4.067s-4.067-1.821-4.067-4.067c0-2.246 1.821-4.067 4.067-4.067s4.067 1.821 4.067 4.067z"></path>
<path d="M55.647 27.901c0 2.246-1.821 4.067-4.068 4.067s-4.068-1.821-4.068-4.067c0-2.246 1.821-4.067 4.068-4.067s4.068 1.821 4.068 4.067z"></path>
</symbol>
<symbol id="coin" viewBox="0 0 32 32">
<path fill="#fde332" style="fill: var(--color1, #fde332)" d="M30.611 16.020c0 8.058-6.533 14.591-14.591 14.591s-14.591-6.533-14.591-14.591c0-8.058 6.533-14.591 14.591-14.591s14.591 6.533 14.591 14.591z"></path>
<path fill="#c07708" style="fill: var(--color2, #c07708)" d="M16.020 1.697c3.826 0 7.423 1.49 10.129 4.195 2.705 2.705 4.195 6.303 4.195 10.129s-1.49 7.423-4.195 10.129c-2.705 2.705-6.303 4.195-10.129 4.195s-7.423-1.49-10.129-4.195c-2.705-2.705-4.195-6.303-4.195-10.129s1.49-7.424 4.196-10.129c2.705-2.706 6.302-4.195 10.128-4.195zM16.020 1.164c-8.206 0-14.858 6.652-14.858 14.858s6.652 14.858 14.858 14.858 14.858-6.652 14.858-14.858-6.652-14.858-14.858-14.858v0z"></path>
<path fill="#fbec79" style="fill: var(--color3, #fbec79)" d="M16.020 1.142c-8.205 0-14.857 6.652-14.857 14.858 0 0.798 0.064 1.58 0.185 2.343 3.602 3.839 8.721 6.237 14.4 6.237 6.026 0 11.42-2.7 15.041-6.955 0.059-0.534 0.089-1.076 0.089-1.626 0-8.206-6.652-14.858-14.858-14.858z"></path>
<path fill="#fff2a1" style="fill: var(--color4, #fff2a1)" d="M29.89 10.985c-2.129-5.599-7.545-9.577-13.89-9.577-6.484 0-11.997 4.155-14.026 9.947 3.557 3.465 8.415 5.6 13.774 5.6 5.546-0.001 10.556-2.289 14.142-5.97z"></path>
<path fill="#c07708" style="fill: var(--color2, #c07708)" d="M15.933 1.676c3.826 0 7.423 1.49 10.129 4.195s4.195 6.303 4.195 10.129-1.49 7.423-4.195 10.129-6.303 4.195-10.129 4.195-7.423-1.49-10.129-4.195-4.195-6.303-4.195-10.129c0-3.826 1.49-7.423 4.195-10.129 2.705-2.705 6.303-4.195 10.129-4.195zM15.933 1.142c-8.206 0-14.858 6.652-14.858 14.858s6.652 14.858 14.858 14.858 14.858-6.652 14.858-14.858-6.653-14.858-14.858-14.858v0z"></path>
<path fill="#ffaa01" style="fill: var(--color5, #ffaa01)" d="M27.206 16.020c0 6.178-5.008 11.186-11.186 11.186s-11.186-5.008-11.186-11.186c0-6.178 5.008-11.186 11.186-11.186s11.186 5.008 11.186 11.186z"></path>
<path fill="#ffb400" style="fill: var(--color6, #ffb400)" d="M10.103 21.177c0 1.786 0.419 3.474 1.164 4.972 1.443 0.678 3.054 1.058 4.754 1.058 6.178 0 11.186-5.008 11.186-11.186 0-1.786-0.419-3.474-1.164-4.972-1.443-0.678-3.054-1.058-4.754-1.058-6.178 0-11.186 5.009-11.186 11.186z"></path>
<path fill="#c07617" style="fill: var(--color7, #c07617)" d="M16.020 4.835c-3.395 0-6.436 1.513-8.487 3.9 1.994-1.838 4.655-2.961 7.581-2.961 6.178 0 11.186 5.008 11.186 11.186 0 2.783-1.017 5.328-2.699 7.285 2.217-2.044 3.605-4.972 3.605-8.225 0-6.177-5.008-11.185-11.186-11.185z"></path>
<path fill="#fff" style="fill: var(--color8, #fff)" d="M7.009 5.918c0.469-0.313 0.86-0.571 1.452-0.645 0.631-0.080 1.675 0.020 1.798 0.444 0.198 0.676-2.198 1.157-3.895 3.548-1.024 1.442-1.283 2.863-1.727 2.789-0.387-0.064-0.481-1.195-0.491-1.298-0.102-1.234 0.492-2.189 0.886-2.822 0.146-0.233 0.779-1.216 1.977-2.015z"></path>
<path fill="#fff" style="fill: var(--color8, #fff)" d="M10.587 4.207c-0.109 0.262-0.171 0.71 0.059 0.928 0.359 0.342 1.109-0.189 2.692-0.626 1.637-0.451 2.425-0.322 2.445-0.542 0.030-0.316-1.557-0.894-3.14-0.727-0.546 0.058-1.728 0.181-2.055 0.967z"></path>
<path fill="#fff" style="fill: var(--color8, #fff)" d="M8.73 24.503c-0.023 0.029 0.989 1.217 2.694 2.098 0.474 0.245 2.14 1.055 4.495 1.088 2.345 0.033 5.264-0.706 5.331-1.637 0.004-0.054-0.002-0.101-0.010-0.137-0.907 0.459-2.799 1.282-5.13 1.3-1.408 0.011-2.571-0.276-2.832-0.342-0.759-0.194-1.354-0.432-1.718-0.593-1.764-0.78-2.809-1.805-2.831-1.777z"></path>
</symbol>
<symbol id="password" viewBox="0 0 24 32">
<path fill="#4a4a4a" style="fill: var(--color1, #4a4a4a)" d="M12.19 24.381c-0.808 0-1.583-0.321-2.155-0.893s-0.893-1.347-0.893-2.155c0-1.691 1.356-3.048 3.048-3.048 0.808 0 1.583 0.321 2.155 0.893s0.893 1.347 0.893 2.155c0 0.808-0.321 1.583-0.893 2.155s-1.347 0.893-2.155 0.893zM21.333 28.952v-15.238h-18.286v15.238h18.286zM21.333 10.667c0.808 0 1.583 0.321 2.155 0.893s0.893 1.347 0.893 2.155v15.238c0 0.808-0.321 1.583-0.893 2.155s-1.347 0.893-2.155 0.893h-18.286c-0.808 0-1.583-0.321-2.155-0.893s-0.893-1.347-0.893-2.155v-15.238c0-1.691 1.356-3.048 3.048-3.048h1.524v-3.048c0-2.021 0.803-3.959 2.232-5.387s3.367-2.232 5.387-2.232c1.001 0 1.991 0.197 2.916 0.58s1.764 0.944 2.472 1.652 1.269 1.547 1.652 2.472c0.383 0.924 0.58 1.915 0.58 2.916v3.048h1.524zM12.19 3.048c-1.212 0-2.375 0.482-3.232 1.339s-1.339 2.020-1.339 3.232v3.048h9.143v-3.048c0-1.212-0.482-2.375-1.339-3.232s-2.020-1.339-3.232-1.339z"></path>
</symbol>
<symbol id="user" viewBox="0 0 32 32">
<path fill="#4a4a4a" style="fill: var(--color1, #4a4a4a)" d="M16 0c2.122 0 4.157 0.843 5.657 2.343s2.343 3.535 2.343 5.657-0.843 4.157-2.343 5.657c-1.5 1.5-3.535 2.343-5.657 2.343s-4.157-0.843-5.657-2.343c-1.5-1.5-2.343-3.535-2.343-5.657s0.843-4.157 2.343-5.657c1.5-1.5 3.535-2.343 5.657-2.343zM16 4c-1.061 0-2.078 0.421-2.828 1.172s-1.172 1.768-1.172 2.828c0 1.061 0.421 2.078 1.172 2.828s1.768 1.172 2.828 1.172c1.061 0 2.078-0.421 2.828-1.172s1.172-1.768 1.172-2.828c0-1.061-0.421-2.078-1.172-2.828s-1.768-1.172-2.828-1.172zM16 18c5.34 0 16 2.66 16 8v6h-32v-6c0-5.34 10.66-8 16-8zM16 21.8c-5.94 0-12.2 2.92-12.2 4.2v2.2h24.4v-2.2c0-1.28-6.26-4.2-12.2-4.2z"></path>
</symbol>
<symbol id="phone" viewBox="0 0 32 32">
<path fill="#4a4a4a" style="fill: var(--color1, #4a4a4a)" d="M24.77 17.336c-0.316-0.316-0.744-0.493-1.191-0.493s-0.875 0.178-1.191 0.493l-2.685 2.685c-1.245-0.371-3.567-1.213-5.039-2.685s-2.314-3.794-2.685-5.039l2.685-2.685c0.316-0.316 0.493-0.744 0.493-1.191s-0.177-0.875-0.493-1.191l-6.737-6.737c-0.316-0.316-0.744-0.493-1.191-0.493s-0.875 0.177-1.191 0.493l-4.568 4.568c-0.64 0.64-1 1.519-0.987 2.417 0.039 2.398 0.674 10.728 7.239 17.293s14.895 7.198 17.295 7.239h0.047c0.889 0 1.73-0.35 2.366-0.987l4.568-4.568c0.316-0.316 0.493-0.744 0.493-1.191s-0.177-0.875-0.493-1.191l-6.737-6.739zM24.556 28.64c-2.102-0.035-9.293-0.6-14.944-6.252-5.669-5.669-6.218-12.886-6.252-14.946l3.377-3.377 4.355 4.355-2.178 2.178c-0.198 0.198-0.344 0.442-0.424 0.71s-0.092 0.552-0.035 0.826c0.040 0.194 1.029 4.786 3.825 7.582s7.389 3.784 7.582 3.825c0.274 0.059 0.558 0.048 0.826-0.032s0.512-0.226 0.71-0.425l2.179-2.178 4.355 4.355-3.379 3.377z"></path>
</symbol>
<symbol id="mail" viewBox="0 0 32 32">
<path fill="#4a4a4a" style="fill: var(--color1, #4a4a4a)" d="M16 20.8c1.296 0 2.4-0.48 3.376-1.424 0.944-0.976 1.424-2.080 1.424-3.376s-0.48-2.4-1.424-3.376c-0.976-0.944-2.080-1.424-3.376-1.424s-2.4 0.48-3.376 1.424c-0.944 0.976-1.424 2.080-1.424 3.376s0.48 2.4 1.424 3.376c0.976 0.944 2.080 1.424 3.376 1.424zM16 0c4.4 0 8.16 1.6 11.28 4.72s4.72 6.88 4.72 11.28v2.32c0 1.6-0.56 2.96-1.6 4.080-1.12 1.072-2.4 1.6-4 1.6-1.92 0-3.504-0.8-4.704-2.4-1.6 1.6-3.488 2.4-5.696 2.4-2.192 0-4.080-0.8-5.664-2.336-1.536-1.584-2.336-3.456-2.336-5.664 0-2.192 0.8-4.080 2.336-5.664 1.584-1.536 3.472-2.336 5.664-2.336 2.208 0 4.080 0.8 5.664 2.336 1.536 1.584 2.336 3.472 2.336 5.664v2.32c0 0.656 0.256 1.232 0.736 1.728s1.040 0.752 1.664 0.752c0.672 0 1.232-0.256 1.712-0.752s0.688-1.072 0.688-1.728v-2.32c0-3.504-1.232-6.512-3.76-9.040s-5.536-3.76-9.040-3.76c-3.504 0-6.512 1.232-9.040 3.76s-3.76 5.536-3.76 9.040c0 3.504 1.232 6.512 3.76 9.040s5.536 3.76 9.040 3.76h8v3.2h-8c-4.4 0-8.16-1.6-11.28-4.72s-4.72-6.88-4.72-11.28c0-4.4 1.6-8.16 4.72-11.28s6.88-4.72 11.28-4.72z"></path>
</symbol>
</defs>
</svg>